<svg width="15" height="15" viewBox="0 0 15 15" fill="none" xmlns="http://www.w3.org/2000/svg">
<path fill-rule="evenodd" clip-rule="evenodd" d="M14.2518 10.4454C13.8707 10.2652 12.0535 9.39094 11.7133 9.27081C11.373 9.15068 11.1212 9.09061 10.8761 9.451C10.6311 9.81139 9.88251 10.6189 9.69875 10.8592C9.515 11.0995 9.26318 11.1328 8.88887 10.9526C7.79314 10.531 6.78176 9.92325 5.90114 9.15735C5.09889 8.42851 4.41088 7.5874 3.85941 6.6613C3.64843 6.30091 3.85941 6.10736 4.02275 5.92717C4.18609 5.74697 4.39026 5.50004 4.58082 5.29315C4.63527 5.23308 4.6761 5.17301 4.71694 5.11962C4.80504 4.98091 4.88239 4.8359 4.94833 4.68582C5.00194 4.58842 5.03001 4.47948 5.03001 4.36881C5.03001 4.25813 5.00194 4.14919 4.94833 4.05179C4.85986 3.8716 4.11123 2.09633 3.80497 1.38222C3.49871 0.668112 3.18564 0.788243 2.96786 0.788243C2.75007 0.788243 2.50507 0.748199 2.28728 0.748199C2.09978 0.753088 1.91534 0.795924 1.74552 0.87402C1.5757 0.952117 1.42418 1.06379 1.30045 1.20203C0.881601 1.58843 0.549634 2.05633 0.325795 2.57578C0.101957 3.09523 -0.00882237 3.65479 0.000548576 4.21864C0.00566237 4.63685 0.0697919 5.05236 0.19111 5.45332C0.457971 6.34893 0.879206 7.19314 1.43656 7.94937C1.62032 8.18296 4.00233 11.9537 7.77272 13.4086C11.5431 14.8636 11.5567 14.363 12.2373 14.3029C12.9179 14.2429 14.4356 13.4353 14.735 12.5878C14.9784 12.0472 15.0564 11.4491 14.9596 10.8659C14.8643 10.7191 14.6465 10.6189 14.2518 10.4454Z" fill="white"/>
</svg>
