<svg width="15" height="16" viewBox="0 0 15 16" fill="none" xmlns="http://www.w3.org/2000/svg">
<path d="M13.3333 0.748199H1.66667C0.745833 0.748199 0 1.47959 0 2.38258V13.8233C0 14.7263 0.745833 15.4576 1.66667 15.4576H8.0175V9.76918H6.065V7.54233H8.0175V5.90386C8.0175 4.00471 9.20167 2.96933 10.93 2.96933C11.5125 2.96769 12.0942 2.99711 12.6733 3.05513V5.04091H11.4833C10.5417 5.04091 10.3583 5.47729 10.3583 6.12123V7.53906H12.6083L12.3158 9.76591H10.345V15.4576H13.3333C14.2542 15.4576 15 14.7263 15 13.8233V2.38258C15 1.47959 14.2542 0.748199 13.3333 0.748199Z" fill="white"/>
</svg>
