<svg width="15" height="18" viewBox="0 0 15 18" fill="none" xmlns="http://www.w3.org/2000/svg">
<path d="M2.23307 0.767548L3.46517 5.13442V7.22847H4.53288V5.13442L5.78125 0.767548H4.7054L4.25781 2.75466C4.13198 3.33487 4.05197 3.74725 4.0153 3.99322H3.98275C3.93025 3.64918 3.85023 3.23373 3.74023 2.74668L3.30892 0.767548H2.23307ZM7.02637 2.4163C6.6647 2.4163 6.37322 2.4856 6.15072 2.62698C5.92822 2.76753 5.76418 2.99244 5.65918 3.30052C5.55501 3.6086 5.50293 4.01642 5.50293 4.52471V5.21103C5.50293 5.7136 5.54798 6.11608 5.63965 6.41926C5.73132 6.72244 5.88602 6.94578 6.10352 7.08961C6.32102 7.23344 6.62029 7.30508 7.00195 7.30508C7.37362 7.30508 7.66908 7.23418 7.88574 7.0928C8.10241 6.95143 8.25945 6.72968 8.35612 6.42405C8.45279 6.11842 8.50098 5.71442 8.50098 5.21103V4.52471C8.50098 4.01724 8.45203 3.61094 8.35287 3.30531C8.2537 3.0005 8.09586 2.77559 7.88086 2.63177C7.66586 2.48794 7.3822 2.4163 7.02637 2.4163ZM9.06575 2.50887V6.0346C9.06575 6.47098 9.14033 6.79192 9.29199 6.99704C9.44366 7.20215 9.67921 7.30508 9.99837 7.30508C10.4584 7.30508 10.8052 7.08707 11.0352 6.65069H11.0579L11.1523 7.22847H12.0003V2.50887H10.918V6.25805C10.8763 6.34549 10.8126 6.41714 10.7259 6.47352C10.6392 6.53073 10.5499 6.55812 10.4557 6.55812C10.3457 6.55812 10.2672 6.51394 10.2197 6.42405C10.1722 6.33415 10.1481 6.18319 10.1481 5.97236V2.50887H9.06575ZM7.00195 3.1473C7.15362 3.1473 7.26096 3.22502 7.32096 3.38192C7.38096 3.53801 7.41048 3.78656 7.41048 4.12569V5.59568C7.41048 5.94462 7.38096 6.19699 7.32096 6.35063C7.26096 6.50426 7.15441 6.58124 7.00358 6.58206C6.85191 6.58206 6.74695 6.50426 6.68945 6.35063C6.63112 6.19699 6.60319 5.94462 6.60319 5.59568V4.12569C6.60319 3.78738 6.63271 3.53882 6.69271 3.38192C6.75271 3.22584 6.85529 3.1473 7.00195 3.1473ZM1.66667 8.12227C0.75 8.12227 0 8.85774 0 9.75665V15.477C0 16.3759 0.75 17.1114 1.66667 17.1114H13.3333C14.25 17.1114 15 16.3759 15 15.477V9.75665C15 8.85774 14.25 8.12227 13.3333 8.12227H1.66667ZM7.54069 9.75665H8.42122V11.8555H8.42773C8.5069 11.7035 8.62044 11.5816 8.76628 11.4884C8.91211 11.3952 9.06995 11.3495 9.23828 11.3495C9.45495 11.3495 9.62439 11.406 9.74772 11.5187C9.87105 11.6315 9.96128 11.8137 10.0163 12.0646C10.0713 12.3163 10.0977 12.6654 10.0977 13.1116V13.7421H10.0993C10.0993 14.3362 10.0254 14.7714 9.87956 15.0508C9.73372 15.3303 9.50676 15.4706 9.19759 15.4706C9.02509 15.4706 8.86888 15.4317 8.72721 15.3541C8.58555 15.2765 8.47904 15.1697 8.4082 15.0349H8.38867L8.2959 15.4116H7.54069V9.75665ZM2.07194 9.95776H4.7819V10.6808H3.8737V15.4116H2.98014V10.6808H2.07194V9.95776ZM11.748 11.3511C12.0614 11.3511 12.3024 11.4075 12.4707 11.5203C12.6382 11.6331 12.7564 11.8092 12.8255 12.047C12.8939 12.2856 12.9281 12.615 12.9281 13.035V13.7181H11.3981V13.9208C11.3981 14.1766 11.4051 14.3679 11.4209 14.4954C11.4367 14.6229 11.4686 14.7167 11.5169 14.7747C11.5653 14.8336 11.6399 14.8625 11.7415 14.8625C11.8782 14.8625 11.9723 14.8099 12.0231 14.7061C12.0739 14.6023 12.102 14.4301 12.1061 14.1874L12.8955 14.2321C12.8997 14.2664 12.902 14.3152 12.902 14.3757C12.902 14.7443 12.7986 15.0195 12.5928 15.2009C12.3869 15.3831 12.0978 15.4738 11.722 15.4738C11.2712 15.4738 10.9548 15.3343 10.7731 15.0572C10.5914 14.7802 10.5013 14.3518 10.5013 13.7708V13.0749C10.5013 12.4767 10.5954 12.0399 10.7829 11.7645C10.9704 11.4891 11.293 11.3511 11.748 11.3511ZM4.50846 11.4277H5.4248V14.3534C5.4248 14.5307 5.44503 14.658 5.48503 14.7332C5.52503 14.8092 5.59026 14.8465 5.68359 14.8465C5.76276 14.8465 5.84059 14.8229 5.91309 14.7747C5.98642 14.7273 6.03838 14.6663 6.07422 14.5928V11.4277H6.99056V15.4116H6.98893H6.27279L6.19466 14.9232H6.1735C5.9785 15.2925 5.68702 15.477 5.29785 15.477C5.02785 15.477 4.83048 15.3901 4.70215 15.2168C4.57381 15.0436 4.50846 14.7722 4.50846 14.4044V11.4277ZM11.7285 11.9576C11.631 11.9576 11.5587 11.9867 11.512 12.0422C11.4654 12.0986 11.4343 12.1909 11.4193 12.3184C11.4034 12.4458 11.3965 12.6395 11.3965 12.8993V13.185H12.0654V12.8993C12.0654 12.6436 12.0569 12.4507 12.0394 12.3184C12.0227 12.186 11.99 12.093 11.9434 12.039C11.8967 11.9851 11.826 11.9576 11.7285 11.9576ZM8.8265 11.9864C8.73816 11.9864 8.65736 12.0207 8.58236 12.0901C8.50736 12.1596 8.45368 12.2488 8.42285 12.3567V14.6183C8.46285 14.6878 8.51493 14.7396 8.5791 14.7747C8.64327 14.809 8.7116 14.8274 8.78743 14.8274C8.88493 14.8274 8.96105 14.7931 9.01855 14.7236C9.07605 14.6542 9.11809 14.5376 9.14225 14.3725C9.16642 14.2083 9.17806 13.9795 9.17806 13.6894V13.177C9.17806 12.8649 9.16876 12.6248 9.14876 12.4556C9.12876 12.2865 9.09297 12.1644 9.04297 12.0933C8.99214 12.0222 8.91983 11.9864 8.8265 11.9864Z" fill="white"/>
</svg>
