<svg width="15" height="15" viewBox="0 0 15 15" fill="none" xmlns="http://www.w3.org/2000/svg">
<path d="M0 1.61871C0 0.724719 0.724719 0 1.61871 0H13.3813C14.2753 0 15 0.724719 15 1.61871V13.3813C15 14.2753 14.2753 15 13.3813 15H1.61871C0.724719 15 0 14.2753 0 13.3813V1.61871Z" fill="white"/>
<path d="M3.33563 8.83383C3.91297 8.83383 4.46225 8.83383 5.01261 8.83383C5.07951 8.83383 5.14858 8.83599 5.21441 8.8457C5.51225 8.88779 5.66548 9.07556 5.65146 9.37664C5.63959 9.62915 5.45721 9.79534 5.16908 9.80182C4.2993 9.82232 3.42951 9.83527 2.55973 9.7975C2.43455 9.7921 2.30829 9.78023 2.18959 9.72844C1.97484 9.63347 1.86585 9.43275 1.90361 9.2029C1.92951 9.0475 1.9975 8.91153 2.09246 8.78959C2.70865 7.98995 3.32592 7.19031 3.9421 6.39067C3.9475 6.38311 3.95397 6.37664 3.95937 6.37016C4.00469 6.30865 4.07484 6.23527 4.04354 6.16836C4.01225 6.10146 3.91405 6.14031 3.84606 6.14138C3.39067 6.14786 2.93527 6.15973 2.48095 6.12196C2.20038 6.0993 2.03743 5.9752 1.98887 5.7734C1.93383 5.54462 2.03311 5.34714 2.2511 5.25973C2.42592 5.18959 2.61261 5.18203 2.79606 5.18203C3.49966 5.18095 4.20325 5.18419 4.90685 5.18851C5.08923 5.18959 5.26944 5.21225 5.40649 5.35362C5.58131 5.53383 5.60397 5.78419 5.44426 6.02376C5.26836 6.28491 5.0752 6.53527 4.88527 6.78671C4.39534 7.43311 3.90326 8.07843 3.41225 8.72376C3.38959 8.75182 3.37124 8.78203 3.33563 8.83383Z" fill="#014229"/>
<path d="M8.79174 8.15721C8.79174 8.51764 8.78959 8.87808 8.79282 9.23851C8.7939 9.45649 8.7162 9.627 8.50901 9.71656C8.30721 9.80398 8.12268 9.78023 7.96728 9.61189C7.90361 9.54282 7.83023 9.52879 7.75038 9.58383C6.90002 10.1795 5.83275 9.61189 5.60613 8.58671C5.4475 7.868 5.62016 7.23131 6.21585 6.75973C6.65937 6.40901 7.24426 6.39606 7.718 6.70361C7.8162 6.76728 7.88959 6.78455 7.97484 6.68851C8.12376 6.52016 8.30829 6.50613 8.50469 6.58599C8.70433 6.66692 8.78959 6.82772 8.79174 7.03383C8.79498 7.40829 8.79174 7.78275 8.79174 8.15721ZM7.82052 8.17556C7.82484 8.01045 7.79894 7.86477 7.73095 7.72987C7.61656 7.5011 7.43095 7.3716 7.17196 7.37376C6.91944 7.37592 6.73599 7.50002 6.62484 7.72556C6.50397 7.9716 6.49642 8.22843 6.58167 8.48635C6.67448 8.76908 6.90973 8.93203 7.19462 8.92232C7.48707 8.91261 7.70074 8.74426 7.78383 8.45397C7.80973 8.35901 7.82376 8.26081 7.82052 8.17556Z" fill="#014229"/>
<path d="M11.877 6.49858C12.8202 6.49858 13.4979 7.1903 13.4989 8.15182C13.5 9.10901 12.804 9.82448 11.8705 9.82664C10.9381 9.82879 10.254 9.11764 10.2551 8.14534C10.2551 7.17628 10.923 6.4975 11.877 6.49858ZM11.2295 8.16045C11.2187 8.27268 11.2435 8.39138 11.2845 8.50685C11.3741 8.76045 11.5748 8.91153 11.8425 8.92124C12.1112 8.93095 12.313 8.81549 12.4295 8.57052C12.5515 8.31369 12.5525 8.04822 12.4511 7.78491C12.3507 7.527 12.1317 7.36944 11.8748 7.37268C11.5975 7.37592 11.4097 7.51728 11.3007 7.76764C11.2489 7.88959 11.222 8.01584 11.2295 8.16045Z" fill="#014229"/>
<path d="M10.0069 7.4493C10.0069 8.02232 10.0079 8.59426 10.0058 9.16728C10.0058 9.23851 9.99822 9.31189 9.98527 9.38203C9.93563 9.64642 9.76513 9.76944 9.477 9.75325C9.24174 9.7403 9.07448 9.57088 9.06261 9.31944C9.05182 9.11225 9.04966 8.90505 9.04966 8.69786C9.04858 7.8993 9.04858 7.10182 9.04966 6.30326C9.04966 6.10038 9.05721 5.8975 9.05937 5.6957C9.06261 5.37951 9.23311 5.18203 9.50721 5.17987C9.82448 5.17772 10.0058 5.36656 10.0058 5.70326C10.0069 6.21261 10.0058 6.72196 10.0058 7.23131C10.0069 7.30469 10.0069 7.377 10.0069 7.4493Z" fill="#014229"/>
</svg>
